<?xml version="1.0" standalone="no"?>
<!DOCTYPE svg PUBLIC "-//W3C//DTD SVG 1.1//EN" "http://www.w3.org/Graphics/SVG/1.1/DTD/svg11.dtd" >
<svg xmlns="http://www.w3.org/2000/svg">
<metadata>Generated by IcoMoon</metadata>
<defs>
<font id="icomoon" horiz-adv-x="1024">
<font-face units-per-em="1024" ascent="960" descent="-64" />
<missing-glyph horiz-adv-x="1024" />
<glyph unicode="&#x20;" horiz-adv-x="512" d="" />
<glyph unicode="&#xe900;" glyph-name="e-mail-envelope" d="M0 787.388v-678.776h1024v678.776h-1024zM512.005 368.216l-420.003 368.824h839.996l-419.993-368.824zM344.695 448.119l-294.346-258.481v516.965l294.346-258.483zM382.846 414.611l129.147-113.414 129.147 113.414 291.122-255.65h-840.524l291.108 255.65zM679.293 448.107l294.356 258.496v-516.965l-294.356 258.469z" />
<glyph unicode="&#xe901;" glyph-name="shapes" d="M111.945 562.337c0 0 31.627 40.766 11.173 97.381-20.526 56.58-68.324 78.069-68.324 78.069s-35.768-48.583-15.778-103.735c19.955-55.187 72.929-71.715 72.929-71.715zM199.724 533.387c0 0 55.294 4.426 86.958 53.867 31.663 49.404 7.461 104.663 7.461 104.663s-51.332-10.423-83.852-61.149c-32.484-50.69-10.566-97.381-10.566-97.381zM205.328 468.062c-25.595-54.509 2.213-97.988 2.213-97.988s54.295 11.637 79.211 64.718c24.881 53.153-6.318 104.77-6.318 104.77s-49.512-16.992-75.106-71.501zM330.303 424.155c0 0-47.727-21.632-68.074-78.248-20.347-56.722 11.387-97.345 11.387-97.345s52.903 16.67 72.75 71.893c19.812 55.223-16.064 103.699-16.064 103.699zM370.069 126.014c0 0 45.906 31.235 49.012 89.813 3.070 58.614-45.299 94.668-45.299 94.668s-39.481-34.447-42.658-94.561c-3.141-60.078 38.945-89.92 38.945-89.92zM182.447 671.427c0 0 48.94 16.349 63.291 74.785 14.386 58.436-13.422 102.843-13.422 102.843s-56.687-20.561-70.715-77.569c-13.993-56.972 20.847-100.058 20.847-100.058zM111.91 438.076c0 0 18.17 48.298-18.063 96.31-36.304 48.048-88.278 54.509-88.278 54.509s-19.847-56.972 15.492-103.806c35.34-46.87 90.848-47.013 90.848-47.013zM152.461 310.638c0 0 6.961 51.118-39.017 89.885-46.049 38.802-98.166 33.519-98.166 33.519s-6.711-59.971 38.124-97.774c44.907-37.767 99.059-25.63 99.059-25.63zM214.217 205.261c0 0-8.746 50.832-64.361 73.821-55.651 23.060-103.699 2.249-103.699 2.249s11.78-59.185 65.968-81.674c54.188-22.382 102.093 5.604 102.093 5.604zM241.204 161.497c-57.972 16.206-103.235-10.174-103.235-10.174s18.741-57.329 75.213-73.143c56.544-15.814 100.737 17.706 100.737 17.706s-14.743 49.44-72.714 65.611zM188.479 636.586l-25.773 12.672c-1.356-2.82-133.935-284.433 238.598-602.884l18.634 21.811c-354.684 303.245-236.67 557.728-231.458 568.401zM912.019 562.872c0 0-31.663 40.766-11.173 97.345 20.454 56.615 68.288 78.105 68.288 78.105s35.733-48.548 15.742-103.735c-19.883-55.187-72.857-71.715-72.857-71.715zM824.24 533.922c0 0-55.294 4.462-86.993 53.867-31.663 49.404-7.461 104.663-7.461 104.663s51.332-10.423 83.888-61.113c32.484-50.725 10.566-97.417 10.566-97.417zM818.636 468.633c25.595-54.509-2.213-97.988-2.213-97.988s-54.295 11.637-79.247 64.718c-24.845 53.153 6.318 104.77 6.318 104.77s49.547-17.027 75.142-71.501zM693.661 424.69c0 0 47.691-21.597 68.074-78.319 20.347-56.687-11.423-97.31-11.423-97.31s-52.867 16.706-72.714 71.929 16.064 103.699 16.064 103.699zM653.824 126.586c0 0-45.87 31.199-48.976 89.813-3.070 58.614 45.335 94.704 45.335 94.704s39.409-34.447 42.622-94.597c3.177-60.149-38.981-89.92-38.981-89.92zM841.446 671.962c0 0-48.869 16.349-63.219 74.785-14.386 58.436 13.458 102.878 13.458 102.878s56.687-20.561 70.68-77.605c13.993-56.936-20.918-100.058-20.918-100.058zM912.055 438.612c0 0-18.17 48.298 18.027 96.31 36.304 48.048 88.314 54.509 88.314 54.509s19.883-56.972-15.492-103.806c-35.376-46.87-90.848-47.013-90.848-47.013zM871.503 311.174c0 0-6.997 51.118 39.017 89.956 46.049 38.767 98.166 33.484 98.166 33.484s6.711-60.006-38.16-97.774-99.023-25.666-99.023-25.666zM809.712 205.797c0 0 8.781 50.868 64.397 73.892 55.687 23.060 103.699 2.249 103.699 2.249s-11.78-59.185-65.968-81.639c-54.224-22.489-102.129 5.497-102.129 5.497zM782.725 162.032c57.972 16.171 103.271-10.174 103.271-10.174s-18.705-57.293-75.213-73.214c-56.508-15.742-100.701 17.777-100.701 17.777s14.707 49.404 72.643 65.611zM835.449 637.122l25.845 12.672c1.356-2.82 133.935-284.433-238.633-602.848l-18.598 21.811c354.613 303.173 236.599 557.728 231.387 568.365z" />
<glyph unicode="&#xe902;" glyph-name="nature-5" d="M671.623 372.294c10.56 0 21.449 1.074 32.612 3.236 54.572 10.564 113.009 46.528 173.693 106.896 126.125 125.467 145.261 350.78 146.015 360.311 0.436 5.511-1.564 10.936-5.467 14.846s-9.326 5.923-14.839 5.491c-9.499-0.736-234.115-19.474-360.211-144.912-60.746-60.428-97.172-118.478-108.266-172.535-8.999-43.848-0.941-83.514 23.279-115.932-101.547-81.95-209.648-149.798-294.883-198.3-10.059-5.725-19.959-11.269-29.682-16.643 13.275 28.559 28.279 69.673 39.882 125.658 69.204 2.633 139.589 69.653 148.939 219.189 8.81 140.924-112.451 260.052-117.618 265.054-6.681 6.472-17.074 7.117-24.507 1.532-5.749-4.319-140.904-107.416-149.711-248.342-8.645-138.29 43.294-213.084 105.203-232.435-6.388-30.296-13.591-55.037-20.381-74.535-20.357-58.464-41.343-83.732-41.866-84.352-0.013-0.016-0.027-0.029-0.038-0.044-4.177-4.828-9.272-8.805-14.952-11.723-86.903-44.664-146.371-69.531-147.173-69.865-9.639-4.010-14.205-15.073-10.197-24.714 3.020-7.268 10.053-11.652 17.463-11.652 2.418 0 4.877 0.467 7.248 1.452 1.116 0.465 113.325 47.357 255.608 128.284 21.042 11.968 43.467 25.11 66.829 39.326 13.34-10.495 59.992-42.584 155.282-64.752 1.873-62.939 61.622-127.768 196.583-139.196 6.118-0.518 12.188-0.765 18.22-0.765 119.991 0 220.43 97.828 224.854 102.196 6.614 6.537 7.493 16.912 2.071 24.467-3.805 5.304-94.674 130.030-222.556 140.857-60.986 5.169-113.868-3.094-152.934-23.873-30.089-16.007-50.829-38.935-60.361-66.044-67.165 16.018-107.111 36.837-126.134 48.825 64.496 40.703 134.245 88.876 201.223 143.141 24.852-19.934 54.252-30.147 86.772-30.147zM193.748 428.71c-20.203 36.043-28.902 86.794-25.154 146.771 6.219 99.463 89.161 181.255 121.714 209.701 28.768-32.294 100.868-123.772 94.652-223.228-3.75-59.974-18.702-109.249-43.236-142.494-17.301-23.442-38.134-37.251-60.957-40.585 8.14 51.505 13.213 113.457 12.341 187.216-0.125 10.44-8.58 18.827-19.127 18.68-10.44-0.125-18.802-8.687-18.68-19.127 0.865-73.143-4.415-133.689-12.299-182.761-19.567 7.293-36.348 22.803-49.254 45.827zM709.434 188.296c-64.265 0.656-117.914 6.303-162.168 14.33 7.113 16.202 20.831 29.987 40.612 40.509 32.629 17.357 78.272 24.127 131.985 19.581 87.644-7.42 158.585-81.341 184.473-112.009-30.688-25.888-113.045-86.837-200.678-79.399-53.718 4.548-97.57 18.896-126.817 41.492-19.57 15.119-31.193 32.914-34.326 52.143 45.945-8.153 101.044-13.789 166.53-14.456 0.067 0 0.131 0 0.198 0 10.349 0 18.793 8.338 18.9 18.711 0.109 10.442-8.269 18.991-18.709 19.098zM572.196 538.025c9.439 45.989 43.289 99.011 97.892 153.33 93.76 93.269 254.029 123.182 313.443 131.336-8.256-59.509-38.496-220.181-132.27-313.461-54.485-54.201-107.812-87.597-154.215-96.58-31.624-6.123-59.211-1.194-82.291 14.619 41.97 35.672 82.34 73.712 119.021 113.797 7.335 8.016 6.463 20.639-2.16 27.543-7.875 6.303-19.401 4.893-26.215-2.547-36.208-39.515-76.168-77.035-117.742-112.22-16.887 23.515-22.121 51.739-15.464 84.183z" />
<glyph unicode="&#xe903;" glyph-name="avatar" d="M610.958 436.776c-6.866 6.864-17.996 6.87-24.868 0-21.194-21.194-49.374-32.866-79.346-32.866-29.974 0-58.154 11.672-79.346 32.866-6.866 6.866-17.998 6.87-24.868 0-6.866-6.866-6.866-18 0-24.866 27.836-27.838 64.844-43.166 104.212-43.166 39.366 0 76.374 15.33 104.212 43.166 6.87 6.868 6.87 18.002 0.004 24.866zM402.378 566.16c-9.714 0-17.584-7.872-17.584-17.584v-28.124c0-9.71 7.87-17.584 17.584-17.584s17.584 7.872 17.584 17.584v28.124c-0.002 9.712-7.872 17.584-17.584 17.584zM663.743 628.997c-29.022 29.022-76.244 29.022-105.266 0-6.87-6.866-6.87-17.998-0.002-24.866 6.866-6.866 18-6.87 24.866 0 15.312 15.31 40.226 15.31 55.538 0 3.432-3.434 7.934-5.15 12.432-5.15s9 1.716 12.434 5.15c6.868 6.868 6.868 18.002-0.002 24.866zM455.014 628.997c-14.060 14.060-32.752 21.802-52.636 21.802-19.88 0-38.572-7.744-52.632-21.802-6.866-6.866-6.866-18 0.002-24.866 6.864-6.87 17.998-6.866 24.866 0 7.416 7.418 17.276 11.502 27.766 11.502 10.486-0.002 20.348-4.086 27.766-11.502 3.434-3.434 7.934-5.15 12.434-5.15 4.498 0 9 1.716 12.432 5.15 6.87 6.868 6.87 18 0.002 24.866zM185.287 909.556c-22.772 0-43.188-10.278-56.852-26.438-13.666 16.16-34.082 26.438-56.852 26.438-9.714 0-17.584-7.872-17.584-17.584s7.872-17.584 17.584-17.584c21.654 0 39.27-17.616 39.27-39.27 0-9.71 7.87-17.584 17.584-17.584s17.584 7.872 17.584 17.584c0 21.654 17.616 39.27 39.27 39.27 9.714 0 17.584 7.872 17.584 17.584s-7.874 17.584-17.588 17.584zM999.838 558.386c-22.772 0-43.188-10.278-56.852-26.438-13.666 16.16-34.082 26.438-56.852 26.438-9.714 0-17.584-7.872-17.584-17.584s7.87-17.584 17.584-17.584c21.654 0 39.27-17.616 39.27-39.27 0-9.71 7.87-17.584 17.584-17.584s17.584 7.872 17.584 17.584c0 21.654 17.616 39.27 39.27 39.27 9.714 0 17.584 7.872 17.584 17.584s-7.878 17.584-17.588 17.584zM611.112 566.16c-9.714 0-17.584-7.872-17.584-17.584v-28.124c0-9.71 7.87-17.584 17.584-17.584s17.584 7.872 17.584 17.584v28.124c0 9.712-7.87 17.584-17.584 17.584zM533.706 591.949c-9.714 0-17.584-7.872-17.584-17.584v-83.228c0-5.172-4.206-9.378-9.378-9.378s-9.378 4.206-9.378 9.378v83.228c0 9.71-7.87 17.584-17.584 17.584s-17.584-7.872-17.584-17.584v-83.228c0-24.562 19.984-44.544 44.544-44.544 24.562 0 44.544 19.982 44.544 44.544v83.228c0.004 9.71-7.868 17.584-17.58 17.584zM965.652 666.115c0 27.782-29.866 50.016-91.304 67.974-9.338 2.726-19.088-2.624-21.812-11.944-2.724-9.322 2.624-19.086 11.944-21.81 54.804-16.020 66.006-31.066 66.006-34.22 0-0.256-7.804-26.48-129.845-49.032-11.366 10.654-25.778 17.316-41.346 18.988l-4.062 42.052c-1.496 15.482-4.422 30.702-8.704 45.514 22.636-3.022 43.89-6.462 63.404-10.29 9.526-1.876 18.77 4.342 20.638 13.87 1.87 9.53-4.34 18.77-13.87 20.64-15.040 2.95-31.066 5.672-47.892 8.158l-45.482 156.235c-5.308 18.252-18.224 33.36-35.434 41.45-17.22 8.096-37.1 8.4-54.556 0.836l-126.572-54.86-126.598 54.86c-17.45 7.558-37.324 7.256-54.536-0.834-17.208-8.090-30.122-23.2-35.426-41.45l-45.48-156.233c-48.822-7.226-90.47-16.436-122.036-27.098-50.356-17.004-74.836-37.55-74.836-62.81 0-21.25 17.058-38.972 52.154-54.178 23.382-10.13 54.6-19.126 92.964-26.83-2.040-6.742-3.16-13.774-3.16-20.88 0-32.522 21.33-60.072 51.038-69.128-2.762-64.896 27.346-127.856 80.18-166.245l96.244-69.938c26.76-19.436 58.114-29.154 89.466-29.154s62.704 9.72 89.452 29.156l96.238 69.934c52.862 38.412 82.972 101.374 80.186 166.245 29.722 9.056 51.062 36.606 51.062 69.128 0 7.106-1.124 14.134-3.158 20.87 97.576 19.478 145.133 46.056 145.133 81.024zM323.973 902.428c2.526 8.69 8.43 15.596 16.622 19.448 8.198 3.852 17.286 3.99 25.59 0.392l133.351-57.788c2.206-0.956 4.586-1.452 6.992-1.452h0.468c2.406 0 4.786 0.492 6.992 1.452l133.327 57.788c8.306 3.604 17.406 3.462 25.608-0.394 8.198-3.854 14.104-10.758 16.632-19.45l41.15-141.357c-2.738 0.324-5.464 0.652-8.236 0.964-65.564 7.404-140.157 11.318-215.715 11.318-75.466 0-149.963-3.904-215.461-11.286-0.098-0.010-0.196-0.018-0.296-0.030-2.752-0.31-5.458-0.636-8.176-0.956l41.152 141.351zM244.087 531.754c-11.432 6.33-19.108 18.496-19.108 32.472 0 8.432 2.75 16.366 7.964 22.962 4.64 5.878 10.798 10.078 17.692 12.31l-6.548-67.744zM258.233 678.125l-4.066-42.056c-15.556-1.688-29.972-8.336-41.346-18.986-121.998 22.552-129.799 48.774-129.799 49.032 0 6.948 33.634 37.622 183.923 57.542-4.288-14.82-7.216-30.044-8.712-45.532zM671.757 357.3l-96.24-69.934c-41.134-29.89-96.424-29.89-137.575 0l-96.242 69.934c-45.594 33.13-70.562 88.58-65.158 144.717l16.69 172.723c1.778 18.378 5.894 36.32 12.21 53.486 61.706 6.518 131.035 9.956 201.309 9.956 70.248 0 139.561-3.44 201.263-9.954 6.316-17.168 10.432-35.11 12.21-53.49l16.692-172.737c5.428-56.112-19.542-111.558-65.16-144.701zM769.375 531.746l-6.548 67.754c6.902-2.232 13.068-6.442 17.722-12.352 5.21-6.562 7.962-14.488 7.962-22.924 0-13.98-7.688-26.148-19.136-32.478zM762.295 52.342c9.714 0 17.584 7.872 17.584 17.584v104.96c0 34.614-12.254 68.264-34.48 94.72-10.432 12.476-22.752 23.058-36.614 31.45-8.312 5.028-19.118 2.372-24.15-5.936-5.028-8.306-2.372-19.118 5.936-24.148 5.096-3.086 9.912-6.57 14.438-10.414-37.626-30.86-59.558-76.718-59.558-126.3v-163.079h-29.68v53.946c0 9.71-7.87 17.584-17.584 17.584h-182.865c-9.714 0-17.584-7.872-17.584-17.584v-53.946h-29.68v163.079c0 41.902-15.822 81.756-44.554 112.218-6.66 7.064-17.792 7.39-24.856 0.726-7.066-6.662-7.39-17.79-0.73-24.856 22.548-23.914 34.97-55.198 34.97-88.092v-163.079h-64.098v104.632c0 9.71-7.87 17.584-17.584 17.584s-17.584-7.872-17.584-17.584v-122.216c0-9.71 7.87-17.584 17.584-17.584h511.086c9.714 0 17.584 7.872 17.584 17.584v57.72c0 9.71-7.87 17.584-17.584 17.584s-17.584-7.872-17.584-17.584v-40.136h-64.098v163.079c0 39.17 17.448 75.362 47.324 99.59 10.882-17.624 16.772-38.052 16.772-58.96v-104.96c0.004-9.71 7.874-17.582 17.588-17.582zM580.604-28.822h-147.699v36.362h147.699v-36.362zM598.188 240.343c-9.714 0-17.584-7.872-17.584-17.584v-78.070h-147.699v78.070c0 9.71-7.87 17.584-17.584 17.584s-17.584-7.872-17.584-17.584v-95.654c0-9.71 7.87-17.584 17.584-17.584h182.865c9.714 0 17.584 7.872 17.584 17.584v95.654c0 9.712-7.87 17.584-17.582 17.584zM999.446 366.526c0 9.71-7.872 17.584-17.584 17.584-24.576 0-46.544-11.354-60.956-29.086-14.412 17.732-36.378 29.086-60.956 29.086-9.714 0-17.584-7.872-17.584-17.584v-51.578c0-11.68 2.584-22.764 7.176-32.738-4.346-3.202-7.176-8.34-7.176-14.152v-51.578c0-11.68 2.584-22.764 7.176-32.738-4.346-3.202-7.176-8.34-7.176-14.152v-51.578c0-37.26 26.092-68.52 60.956-76.53v-87.904c0-9.71 7.87-17.584 17.584-17.584s17.584 7.872 17.584 17.584v87.904c34.864 8.008 60.956 39.27 60.956 76.53v51.578c0 5.812-2.832 10.948-7.176 14.152 4.592 9.974 7.176 21.058 7.176 32.738v51.578c0 5.812-2.832 10.948-7.176 14.152 4.592 9.974 7.176 21.058 7.176 32.738v51.578zM903.324 78.371c-15.18 6.756-25.788 21.986-25.788 39.646v30.27c15.18-6.76 25.788-21.988 25.788-39.646v-30.27zM903.324 176.837c-15.18 6.76-25.788 21.988-25.788 39.646v30.27c15.18-6.758 25.788-21.988 25.788-39.646v-30.27zM903.324 275.303c-15.18 6.76-25.788 21.988-25.788 39.646v30.27c15.18-6.76 25.788-21.988 25.788-39.646v-30.27zM964.28 118.017c0-17.658-10.608-32.888-25.788-39.646v30.27c0 17.658 10.608 32.888 25.788 39.646v-30.27zM964.28 216.483c0-17.658-10.608-32.888-25.788-39.646v30.27c0 17.658 10.608 32.888 25.788 39.646v-30.27zM964.28 314.951c0-17.658-10.608-32.888-25.788-39.646v30.27c0 17.658 10.608 32.888 25.788 39.646v-30.27zM258.605 361.058c-9.714 0-17.584-7.872-17.584-17.584v-141.627c0-33.668-16.802-63.468-42.444-81.516v222.751c0 9.71-7.87 17.584-17.584 17.584s-17.584-7.872-17.584-17.584v-238.389c-7.092-1.608-14.458-2.486-22.028-2.486s-14.936 0.876-22.028 2.486v238.389c0 9.71-7.87 17.584-17.584 17.584s-17.584-7.872-17.584-17.584v-222.749c-25.644 18.046-42.444 47.846-42.444 81.516v141.627c0 9.71-7.87 17.584-17.584 17.584s-17.584-7.872-17.584-17.584v-141.627c0-68.368 51.172-124.972 117.222-133.621v-114.644c0-9.71 7.87-17.584 17.584-17.584s17.584 7.872 17.584 17.584v114.644c66.048 8.646 117.222 65.25 117.222 133.619v141.627c0.004 9.71-7.866 17.584-17.58 17.584z" />
<glyph unicode="&#xe904;" glyph-name="home" d="M1007.308 111.286h-978.146c-9.218 0-16.692-7.474-16.692-16.692s7.474-16.692 16.692-16.692h978.146c9.218 0 16.692 7.474 16.692 16.692s-7.474 16.692-16.692 16.692zM250.566 366.132h-122.588c-9.218 0-16.692-7.474-16.692-16.692v-100.156c0-9.218 7.474-16.692 16.692-16.692h122.588c9.218 0 16.692 7.474 16.692 16.692v100.156c0 9.218-7.474 16.692-16.692 16.692zM233.872 265.976h-89.2v66.77h89.202v-66.77zM1007.308 174.716h-28.71v130.086c0 4.866-2.124 9.488-5.812 12.66l-28.456 24.46c-6.258 5.38-15.506 5.38-21.762 0l-28.456-24.462c-3.688-3.172-5.812-7.794-5.812-12.66v-23.984h-15.794v23.984c0 4.866-2.124 9.488-5.812 12.66l-22.848 19.644-1.086 40.41c26.966 9.904 51.71 25.682 72.146 46.118 37.556 37.556 58.24 87.49 58.24 140.604v55.020c0 109.642-89.19 198.844-198.822 198.844-109.642 0-198.844-89.202-198.844-198.844v-55.020c0-83.96 53.5-159.058 131.622-187.156l-2.122-39.806-23.050-19.816c-3.688-3.172-5.812-7.794-5.812-12.66v-23.984h-15.796v23.984c0 4.866-2.124 9.488-5.812 12.66l-28.458 24.464c-6.258 5.38-15.506 5.38-21.762 0l-28.456-24.462c-3.688-3.172-5.812-7.794-5.812-12.66v-130.086h-40.822v251.512h14.468c6.228 0 11.936 3.466 14.81 8.992 2.874 5.524 2.432 12.188-1.142 17.288l-116.652 166.328c-3.124 4.454-8.226 7.106-13.668 7.106-0.018 0-0.036-0.002-0.054-0.002h-103.774v52.904c0 9.218-7.474 16.692-16.692 16.692h-118.424c-9.218 0-16.692-7.474-16.692-16.692v-52.904h-38.038c-5.442 0-10.54-2.652-13.668-7.106l-116.648-166.326c-3.574-5.1-4.016-11.762-1.142-17.288s8.582-8.992 14.81-8.992h27.822v-251.51h-15.352c-9.218 0-16.692-7.474-16.692-16.692s7.474-16.692 16.692-16.692h978.146c9.218 0 16.692 7.474 16.692 16.692s-7.476 16.692-16.694 16.692zM264.858 662.152h24.95v-39.528l-24.95-35.576v75.104zM204.764 662.15h26.708v-111.284h-26.708v111.284zM296.026 174.722h-218.126v251.504h218.126v-251.504zM48.79 459.612l93.234 132.942h29.356v-58.38c0-9.218 7.474-16.692 16.692-16.692h60.094c5.652 0 10.638 2.816 13.66 7.114l0.008-0.006 47.666 67.966h85.422l-93.234-132.942h-252.898zM437.956 174.722h-50.686v157.66h50.686v-157.66zM495.822 174.722h-24.48v174.352c0 9.218-7.474 16.692-16.692 16.692h-84.072c-9.218 0-16.692-7.474-16.692-16.692v-174.352h-24.472v251.504h166.408v-251.504zM342.464 459.612l84.556 120.564 84.554-120.564h-169.11zM626.936 174.714h-23.526v122.422l11.762 10.112 11.762-10.112v-122.422zM660.322 174.714v23.748h15.796v-23.748h-15.796zM676.116 231.85h-15.796v15.58h15.796v-15.58zM733.028 174.714h-23.526v122.422l11.762 10.112 11.762-10.112v-122.422zM782.21 174.716h-15.794v23.748h15.794v-23.748zM782.21 231.85h-15.794v15.58h15.794v-15.58zM788.020 317.46c-3.688-3.172-5.812-7.794-5.812-12.66v-23.984h-15.794v23.984c0 4.866-2.124 9.488-5.812 12.66l-22.232 19.112 3.818 71.632c21.878-5.694 44.578-5.79 66.358-0.34l1.912-71.114-22.438-19.29zM839.12 174.714h-23.526v122.422l11.762 10.112 11.762-10.112v-122.422zM841.31 431.502c-0.15 5.582-3.082 10.718-7.812 13.688s-10.632 3.376-15.724 1.084c-24.66-11.098-52.188-11.978-77.508-2.484l-7.712 2.892c-4.976 1.866-10.55 1.254-15.002-1.662-4.452-2.912-7.246-7.77-7.53-13.078l-1.052-19.748c-59.854 25.804-100.108 85.594-100.108 152.044v55.020c0 91.234 74.224 165.458 165.458 165.458 91.222 0 165.436-74.224 165.436-165.458v-55.020c0-44.196-17.21-85.748-48.46-116.996-14.312-14.312-31.158-25.864-49.496-34.082l-0.49 18.342zM888.3 174.714h-15.794v23.748h15.794v-23.748zM888.3 231.85h-15.794v15.58h15.794v-15.58zM945.21 174.714h-23.526v122.422l11.762 10.112 11.762-10.112v-122.422zM872.474 500.036c0-9.219-7.473-16.692-16.692-16.692s-16.692 7.473-16.692 16.692c0 9.219 7.473 16.692 16.692 16.692s16.692-7.473 16.692-16.692zM689.966 482.23c0-9.219-7.473-16.692-16.692-16.692s-16.692 7.473-16.692 16.692c0 9.219 7.473 16.692 16.692 16.692s16.692-7.473 16.692-16.692zM709.998 635.804c0-9.219-7.473-16.692-16.692-16.692s-16.692 7.473-16.692 16.692c0 9.219 7.473 16.692 16.692 16.692s16.692-7.473 16.692-16.692zM787.898 573.484c0-9.219-7.473-16.692-16.692-16.692s-16.692 7.473-16.692 16.692c0 9.219 7.473 16.692 16.692 16.692s16.692-7.473 16.692-16.692zM876.926 655.834c0-9.219-7.473-16.692-16.692-16.692s-16.692 7.473-16.692 16.692c0 9.219 7.473 16.692 16.692 16.692s16.692-7.473 16.692-16.692zM790.124 722.606c0-9.219-7.473-16.692-16.692-16.692s-16.692 7.473-16.692 16.692c0 9.219 7.473 16.692 16.692 16.692s16.692-7.473 16.692-16.692z" />
<glyph unicode="&#xe905;" glyph-name="people" d="M495.158 272.024v76.831c61.012 30.921 102.86 94.070 104.062 167.383v0.044c36.748 0.916 66.532 31.183 66.532 64.783 0 38.176-29.306 69.287-66.532 69.119v2.531c0 11.373-1.267 22.746-3.395 34.12h206.403c8.53 0 15.353 5.118 17.059 13.648 1.705 6.823-1.705 15.353-8.53 18.766l-69.944 39.237c-42.588 24.172-85.18 53.791-131.434 91.979 21.805 25.233 54.093 41.085 90.492 41.085 10.236 0 17.059 6.823 17.059 17.059s-6.823 17.059-17.059 17.059c-46.788 0-88.411-20.561-116.485-53.177-14.21 12.343-28.798 25.481-43.873 39.529-32.412 30.707-80.18 47.766-129.651 47.766-49.473 0-97.239-17.059-129.651-49.473-75.062-69.944-138.181-117.71-201.301-153.535l-69.944-39.237c-6.823-3.413-10.236-11.941-8.53-18.766 1.705-6.823 8.53-11.941 17.059-11.941h208.108c-2.115-11.313-3.377-22.626-3.391-33.94-37.15-0.152-68.241-31.285-68.241-68.417 0-37.53 30.707-68.237 68.237-68.237 0-73.297 41.472-136.434 102.357-167.361v-75.304c-156.136-25.371-272.95-160.032-272.95-320.296 0-10.236 6.823-17.059 17.059-17.059h682.377c10.236 0 17.059 6.823 17.059 17.059 0.002 160.264-116.81 294.925-272.948 318.747zM631.634 584.475c0-18.19-14.438-33.13-32.412-34.032v68.063c17.974-0.902 32.412-15.841 32.412-34.032zM95.967 729.48c66.532 37.53 129.651 87.003 208.126 158.653 25.589 23.884 64.827 37.53 105.769 37.53s80.18-13.648 105.769-37.53c16.907-15.437 33.1-29.839 48.769-43.32-11.527-21.593-18.062-46.318-18.062-72.683 0-10.236 6.823-17.059 17.059-17.059s17.059 6.823 17.059 17.059c0 17.946 3.876 34.881 10.801 50.073 46.266-38.048 88.642-67.981 132.498-92.721l13.648-8.53h-655.084l13.648 8.528zM188.088 584.475c0 18.766 15.353 34.12 34.12 34.12v-68.237c-18.766-0.002-34.12 15.351-34.12 34.118zM256.325 516.238v136.476c0 11.941 1.705 22.177 3.413 34.12h300.247c1.705-11.941 3.413-22.177 3.413-34.12v-136.476c0-85.298-68.237-153.535-153.535-153.535s-153.537 68.237-153.537 153.535zM409.86 328.584c14.786 0 29.156 1.691 42.94 4.886 2.775 0.594 5.53 1.225 8.239 1.937v-109.18c0-29.002-22.177-51.178-51.178-51.178s-51.178 22.177-51.178 51.178v109.182c2.721-0.716 5.488-1.349 8.272-1.945 13.77-3.191 28.132-4.88 42.906-4.88zM409.86 140.929c47.766 0 85.298 37.53 85.298 85.298v11.941c11.663-1.943 23.042-4.584 34.12-7.847v-123.512h-238.833v123.402c11.093 3.315 22.476 5.991 34.12 7.957v-11.941c0-47.766 37.53-85.298 85.296-85.298zM256.325 217.581v-113.354c-29.831-8.36-51.178-36.073-51.178-67.359v-66.532h-119.415c6.975 110.205 74.416 204.427 170.594 247.245zM239.267-29.665v66.532c0 20.471 17.059 35.825 35.825 35.825h269.54c20.471 0 35.825-17.059 35.825-35.825v-66.532h-341.189zM614.574-29.665v66.532c0 32.488-22.229 59.109-51.178 67.311v113.676c97.033-42.688 163.605-137.078 170.594-247.519h-119.415zM512.217 38.573h-204.713c-10.236 0-17.059-6.823-17.059-17.059s6.823-17.059 17.059-17.059h204.713c10.236 0 17.059 6.823 17.059 17.059s-6.823 17.059-17.059 17.059zM1006.941 328.584c-10.236 0-17.059-6.823-17.059-17.059v-51.178h-51.178v51.178c0 10.236-6.823 17.059-17.059 17.059s-17.059-6.823-17.059-17.059v-51.178h-51.178v51.178c0 10.236-6.823 17.059-17.059 17.059s-17.059-6.823-17.059-17.059v-51.178h-51.178v51.178c0 10.236-6.823 17.059-17.059 17.059s-17.059-6.823-17.059-17.059v-51.178h-51.178v51.178c0 10.236-6.823 17.059-17.059 17.059s-17.059-6.823-17.059-17.059v-68.237c0-10.236 6.823-17.059 17.059-17.059h153.535v-272.95c0-10.236 6.823-17.059 17.059-17.059s17.059 6.823 17.059 17.059v272.948h153.535c10.236 0 17.059 6.823 17.059 17.059v68.237c-0.004 10.238-6.827 17.061-17.063 17.061z" />
<glyph unicode="&#xe906;" glyph-name="clock" d="M702.208 733.489v31.94h-380.349v-31.906c0 0 57.849-161.081 166.405-235.439v-77.39c0 0-119.741-116.541-166.405-250.466v-36.522h380.315v36.522c-60.679 147.874-166.405 250.466-166.405 250.466v77.39c147.638 126.85 166.438 235.406 166.438 235.406zM839.267 792.787v57.512h54.547v109.701h-763.628v-109.701h54.615v-57.512c0-87.835 157.577-327.654 164.956-344.938-7.244-17.318-164.956-257.171-164.956-344.635v-57.445h-54.615v-109.768h763.628v109.768h-54.547v57.445c0 87.835-157.645 326.138-166.068 344.804 8.423 18.632 166.068 257.002 166.068 344.77zM784.787 103.213v-57.445h-545.473v57.445c0 63.105 167.112 313.167 167.112 344.804s-167.112 281.631-167.112 344.736v57.546h545.439v-57.512c0-63.105-168.527-313.099-168.527-344.736s168.561-281.732 168.561-344.837z" />
<glyph unicode="&#xe907;" glyph-name="multimedia" d="M761.115 335.022c96.6 158.148 76.988 367.83-59.671 504.698-160.235 160.235-421.033 160.235-581.268 0s-160.235-421.033 0-581.059c136.659-136.659 346.341-156.271 504.698-59.671l234.719-234.719c37.555-37.555 98.686-37.555 136.241 0s37.555 98.686 0 136.241l-234.719 234.51zM616.528 343.368c-113.5-113.5-297.936-113.5-411.227 0-113.5 113.5-113.5 297.936 0 411.227 113.5 113.5 297.936 113.5 411.227 0 113.291-113.291 113.291-297.728 0-411.227zM459.006 601.245h123.932v-94.513h-123.932v-123.932h-94.513v123.932h-123.723v94.513h123.932v123.932h94.513v-123.932h-0.209z" />
<glyph unicode="&#xe908;" glyph-name="nature-4" d="M1024 458.45h-203.7l-121.138 129.026-71.166 75.57-81.12-70.878-97.252 102.972-236.688-236.69h-212.936v-31.346h181.588l-114.938-114.938h-45.752v-31.346h982.204v31.346h-45.462l-107.91 114.938h174.27v31.346zM110.982 312.164l338.004 338.004 34.466-36.482-202.232-212.344 22.7-21.622 201.092 211.146 263.202-278.704h-657.232zM914.644 312.164h-103.316l-242.91 257.196 57.464 50.208 40.032-42.508-29.158-29.158 22.164-22.166 28.478 28.478 227.246-242.050zM323.918 834.612h-26.378c0.172 1.736 0.254 3.48 0.254 5.224 0 31.688-25.78 57.47-57.47 57.47h-125.386c-31.69 0-57.47-25.782-57.47-57.47s25.78-57.47 57.47-57.47h26.378c-0.172-1.736-0.254-3.48-0.254-5.224 0-31.688 25.78-57.47 57.47-57.47h125.388c31.69 0 57.47 25.782 57.47 57.47s-25.782 57.47-57.472 57.47zM323.918 751.020h-125.388c-14.404 0-26.122 11.718-26.122 26.122 0 4.332 1.248 8.642 3.814 13.172l13.258 23.4h-74.54c-14.406 0-26.122 11.718-26.122 26.122 0 14.406 11.718 26.122 26.122 26.122h125.388c14.406 0 26.122-11.718 26.122-26.122 0-4.332-1.248-8.642-3.814-13.172l-13.258-23.4h74.54c14.406 0 26.122-11.718 26.122-26.122s-11.716-26.122-26.122-26.122zM909.062 771.918h-26.378c0.172 1.736 0.254 3.48 0.254 5.224 0 31.688-25.78 57.47-57.47 57.47h-125.388c-31.69 0-57.47-25.782-57.47-57.47s25.78-57.47 57.47-57.47h26.378c-0.172-1.736-0.256-3.48-0.256-5.224 0-31.688 25.78-57.47 57.47-57.47h125.388c31.69 0 57.47 25.782 57.47 57.47s-25.78 57.47-57.468 57.47zM909.062 688.326h-125.388c-14.406 0-26.122 11.718-26.122 26.122 0 4.332 1.248 8.642 3.814 13.172l13.258 23.4h-74.54c-14.406 0-26.122 11.718-26.122 26.122 0 14.406 11.718 26.122 26.122 26.122h125.388c14.406 0 26.122-11.718 26.122-26.122 0-4.332-1.248-8.642-3.814-13.172l-13.258-23.4h74.54c14.406 0 26.122-11.718 26.122-26.122s-11.718-26.122-26.122-26.122zM62.694 218.122h94.040v-31.346h-94.040v31.346zM188.082 218.122h41.796v-31.346h-41.796v31.346zM438.858 30.040h94.040v-31.346h-94.040v31.346zM564.244 30.040h41.796v-31.346h-41.796v31.346zM773.224 218.122h94.040v-31.346h-94.040v31.346zM898.612 218.122h41.796v-31.346h-41.796v31.346zM491.102 218.122h94.040v-31.346h-94.040v31.346zM417.96 218.122h41.796v-31.346h-41.796v31.346zM240.326 71.836h94.040v-31.348h-94.040v31.348zM167.184 71.836h41.796v-31.348h-41.796v31.348zM783.674 71.836h94.040v-31.348h-94.040v31.348zM710.53 71.836h41.796v-31.348h-41.796v31.348z" />
<glyph unicode="&#xe909;" glyph-name="multiply" d="M0 960v-1024h1024v1024h-1024zM989.867-29.867h-955.733v955.733h955.733v-955.733zM273.22 185.088l241.357 241.357 241.357-241.357 24.132 24.132-241.357 241.357 241.357 241.357-24.132 24.132-241.357-241.357-241.357 241.357-24.132-24.132 241.357-241.357-241.357-241.357z" />
<glyph unicode="&#xe90a;" glyph-name="nature-3" d="M1018.586 637.193c-5.525 5.036-13.732 5.755-20.049 1.754-121.175-76.742-191.963-36.904-194.796-35.247-6.44 3.939-14.723 3.028-20.155-2.205-19.797-19.062-78.903-66.463-123.041-66.46-1.836 0-3.647 0.082-5.427 0.252-1.442 0.137-1.798 0.365-2.543 1.626-13.354 22.625 16.373 124.167 51.574 205.271 2.101 4.841 1.774 10.397-0.887 14.96-2.658 4.56-7.329 7.584-12.58 8.141-56.928 6.038-100.936 33.905-130.795 82.827-25.549 41.853-31.299 83.879-31.299 95.303 0 9.161-7.427 16.587-16.587 16.587s-16.587-7.427-16.587-16.587c0-11.423-5.75-53.449-31.299-95.305-29.86-48.922-73.867-76.789-130.795-82.827-5.25-0.555-9.921-3.581-12.58-8.141s-2.988-10.116-0.885-14.96c35.207-81.084 64.936-182.619 51.571-205.266-0.743-1.261-1.101-1.488-2.543-1.626-44.472-4.229-107.812 46.363-128.469 66.208-5.434 5.233-13.717 6.14-20.155 2.205-0.71-0.431-72.233-42.375-194.796 35.247-6.314 4.003-14.522 3.28-20.049-1.754-5.525-5.034-7-13.142-3.601-19.801 0.694-1.362 69.351-137.22 51.644-218.956-0.663-3.061-1.845-13.509 10.83-19.407 1.119-0.52 2.765-1.258 4.852-2.194 86.255-38.649 105.7-62.809 109.612-73.772 0.577-1.615 0.767-2.888 0.728-3.943l-119.454-85.324c-6.082-4.344-8.508-12.219-5.923-19.233 2.583-7.013 9.53-11.421 16.988-10.791 0.531 0.046 53.81 4.587 109.922 5.377 89.882 1.269 114.077-8.126 119.744-11.394-3.008-21.387-36.698-107.725-69.378-183.183-2.771-6.398-1.245-13.847 3.82-18.64 3.152-2.984 7.254-4.543 11.408-4.541 2.519 0 5.058 0.573 7.413 1.752 0.949 0.473 95.847 47.257 184.729 33.821 10.412-1.579 15.422 5.646 19.454 11.448 2.046 2.944 4.908 7.155 8.309 12.215 5.941 8.836 14.132 21.15 24.348 36.61 1.522 2.302 3.043 4.605 4.552 6.892v-121.539c0-9.161 7.427-16.587 16.587-16.587s16.587 7.427 16.587 16.587v121.535c1.508-2.285 3.030-4.587 4.552-6.892 10.218-15.457 18.41-27.774 24.348-36.61 3.404-5.060 6.266-9.273 8.309-12.215 4.032-5.801 9.050-13.009 19.454-11.448 88.595 13.4 183.789-33.354 184.729-33.821 2.355-1.179 4.892-1.752 7.413-1.752 4.151 0 8.256 1.559 11.408 4.541 5.065 4.793 6.589 12.242 3.82 18.64-32.679 75.455-66.37 161.796-69.378 183.183 5.668 3.271 29.842 12.664 119.744 11.394 56.112-0.787 109.389-5.33 109.922-5.377 7.456-0.639 14.405 3.778 16.988 10.791 2.585 7.013 0.159 14.889-5.923 19.233l-119.454 85.324c-0.040 1.055 0.15 2.329 0.728 3.943 3.915 10.963 23.36 35.123 109.612 73.772 2.088 0.936 3.733 1.674 4.852 2.194 12.675 5.898 11.494 16.346 10.83 19.407-17.682 81.604 50.95 217.598 51.642 218.959 3.404 6.657 1.929 14.765-3.594 19.801zM935.888 404.664c-72.947-33.219-111.735-62.024-121.884-90.448-4.032-11.295-3.466-22.663 1.639-32.872 1.21-2.42 2.995-4.507 5.195-6.080l76.574-54.697c-19.286 0.936-41.528 1.714-63.804 1.849-118.981 0.692-139.142-17.065-143.214-36.399-1.418-6.739-3.793-18.018 34.539-114.721 7.467-18.841 15.068-37.335 21.442-52.611-37.123 13.197-96.273 28.816-155.915 22.391-11.881 17.43-41.391 62.172-61.873 93.396v57.709l312.076 242.727c7.232 5.624 8.535 16.046 2.908 23.275-5.624 7.23-16.046 8.535-23.275 2.908l-291.709-226.883v366.16l65.914 65.914c6.478 6.478 6.478 16.981 0 23.457-6.478 6.478-16.981 6.478-23.457 0l-42.457-42.455v83.809c0 9.161-7.427 16.587-16.587 16.587s-16.587-7.427-16.587-16.587v-83.809l-42.457 42.457c-6.478 6.478-16.981 6.478-23.457 0-6.478-6.478-6.478-16.981 0-23.457l65.914-65.916v-366.16l-291.707 226.885c-7.23 5.624-17.653 4.322-23.275-2.908-5.624-7.232-4.322-17.651 2.908-23.275l312.074-242.727v-57.709c-20.48-31.226-49.992-75.966-61.871-93.396-59.662 6.436-118.797-9.192-155.917-22.391 6.372 15.274 13.973 33.772 21.442 52.611 38.332 96.703 35.957 107.982 34.539 114.721-4.069 19.332-24.28 37.094-143.214 36.399-22.276-0.137-44.518-0.913-63.804-1.849l76.574 54.697c2.201 1.572 3.985 3.66 5.195 6.080 5.107 10.209 5.671 21.577 1.639 32.872-10.149 28.426-48.937 57.231-121.884 90.448 7.371 59.697-17.021 134.506-36.136 181.796 88.371-41.592 149.619-26.361 173.971-16.618 8.698-7.61 23.413-19.763 41.314-31.695 39.943-26.628 75.188-38.704 104.768-35.886 11.936 1.137 21.871 7.456 27.969 17.791 17.919 30.364 0.542 94.515-14.088 140.128-9.614 29.972-20.274 57.698-27.411 75.422 87.721 17.682 132.43 81.338 153.502 135.006 21.073-53.668 65.784-117.324 153.502-135.006-7.137-17.722-17.797-45.447-27.411-75.422-14.63-45.613-32.005-109.762-14.088-140.128 6.1-10.335 16.032-16.654 27.969-17.791 29.565-2.813 64.826 9.258 104.768 35.886 17.899 11.934 32.613 24.085 41.312 31.695 24.359-9.745 85.598-24.983 173.971 16.621-19.111-47.292-43.506-122.101-36.134-181.801z" />
<glyph unicode="&#xe90b;" glyph-name="wall" d="M496.326 777.142h31.346v-31.346h-31.346v31.346zM642.612 359.184v177.632h112.848v240.326h-190.172v-31.346h158.824v-177.632h-376.16v177.632h111.804v31.346h-459.756v-658.286h1024v240.328h-381.388zM611.266 536.816v-177.632h-386.612v177.632h386.612zM31.346 745.796h285.258v-177.632h-256v-31.346h132.702v-177.632h-161.96v386.61zM335.934 150.204h-304.588v177.632h304.588v-177.632zM768 150.204h-400.718v177.632h400.718v-177.632zM992.654 150.204h-193.306v177.632h193.306v-177.632z" />
<glyph unicode="&#xe90c;" glyph-name="note" d="M1024 124.235v647.529c0 11.989-4.615 22.892-12.114 31.128-0.114 0.134-0.241 0.262-0.359 0.396-8.465 9.086-20.494 14.811-33.862 14.811h-931.33c-13.351 0-25.366-5.711-33.829-14.776-0.13-0.148-0.271-0.29-0.398-0.438-7.495-8.236-12.107-19.136-12.107-31.121v-647.529c0-11.991 4.617-22.899 12.119-31.135 0.102-0.123 0.218-0.236 0.324-0.357 8.465-9.105 20.508-14.843 33.892-14.843h931.33c13.368 0 25.396 5.725 33.862 14.811 0.118 0.134 0.246 0.259 0.359 0.396 7.499 8.236 12.114 19.139 12.114 31.128zM227.133 313.492c-9.228 8.862-23.895 8.563-32.756-0.667l-148.042-154.179v578.708l277.833-289.354-75.051-78.165c-8.862-9.228-8.563-23.895 0.667-32.756 4.49-4.311 10.27-6.457 16.041-6.457 6.086 0 12.165 2.384 16.715 7.122l73.747 76.805 106.911-111.345c12.946-13.483 30.278-20.909 48.802-20.909s35.856 7.427 48.802 20.909l106.911 111.345 278.757-290.313h-868.94l150.269 156.501c8.862 9.228 8.563 23.895-0.665 32.756zM527.381 335.295c-4.126-4.298-9.589-6.665-15.381-6.665s-11.252 2.368-15.381 6.665l-419.089 436.47h868.938l-419.087-436.47zM699.832 448l277.833 289.354 0.005-578.715-277.838 289.361z" />
<glyph unicode="&#xe90d;" glyph-name="people2" d="M512.034 555.861c111.423 0 202.069 90.646 202.069 202.069s-90.646 202.069-202.069 202.069c-111.423 0-202.069-90.646-202.069-202.069s90.646-202.069 202.069-202.069zM783.184 457.937c-0.086 0.028-0.252 0.090-0.338 0.11-26.31 6.427-106.879 17.698-106.879 17.698-9.095 2.8-18.815-2.017-22.087-10.992l-121.273-332.745c-6.996-19.194-34.144-19.194-41.139 0l-121.273 332.745c-2.641 7.247-9.481 11.792-16.812 11.792-1.738 0-84.578-11.616-112.157-18.473-75.362-18.739-122.897-92.846-122.897-170.077v-276.866c0-41.491 33.637-75.128 75.128-75.128h637.093c41.491 0 75.128 33.637 75.128 75.128v277.787c-0.003 76.897-49.4 145.139-122.494 169.022zM557.77 482.089c-4.841 5.275-11.916 7.927-19.073 7.927h-53.389c-7.158 0-14.236-2.655-19.073-7.927-7.492-8.164-8.582-19.959-3.262-29.175l28.541-43.025-13.36-112.709 26.31-69.991c2.565-7.040 12.519-7.040 15.084 0l26.31 69.991-13.36 112.709 28.541 43.025c5.313 9.216 4.224 21.011-3.269 29.175z" />
<glyph unicode="&#xe90e;" glyph-name="phone-call" d="M833.548 191.058c-11.566 12.407-23.553 24.183-35.329 35.539-5.888 5.678-11.776 11.566-17.664 17.454l-51.311 51.311c-21.87 21.87-47.526 33.436-73.812 33.436-26.497 0-51.942-11.566-73.812-33.436-5.257-5.257-10.725-10.515-15.982-15.772-12.197-11.987-24.814-24.394-37.011-37.432-21.66 10.515-43.741 25.025-69.396 45.213-33.436 27.338-62.036 54.676-87.481 83.696-13.669 15.772-37.642 17.454-53.414 3.575-15.772-13.669-17.454-37.642-3.575-53.414 28.179-32.385 59.933-62.877 96.944-92.949 0.21 0 0.21-0.21 0.421-0.21 37.222-29.441 68.555-48.788 101.991-62.456 0.841-0.421 1.682-0.631 2.523-0.841 7.991-2.734 31.964-10.725 55.517 12.617 0.421 0.421 1.051 1.051 1.472 1.472 14.3 16.192 29.441 30.913 45.423 46.685 5.468 5.257 10.935 10.725 16.403 16.192 5.047 5.047 12.828 11.356 20.398 11.356s15.141-6.098 20.398-11.356l51.311-51.311c6.098-6.098 12.407-12.197 18.295-18.085 11.776-11.356 22.711-22.291 33.226-33.436 0.21-0.421 0.631-0.631 0.841-0.841 7.991-7.991 16.613-20.609-0.421-38.694l-64.139-64.139c-13.669-13.669-28.81-20.819-47.946-22.501-32.595-2.734-67.293 3.575-112.506 20.398-75.284 27.758-145.521 70.027-221.437 133.114-91.687 76.756-163.817 168.864-214.707 273.799-18.085 38.063-39.324 88.533-42.899 142.157-1.893 29.861 6.098 51.311 25.445 69.396 14.090 11.776 26.497 24.604 38.273 36.801 7.57 7.991 14.72 15.351 22.291 22.291l0.21 0.21c14.931 14.3 27.338 14.51 41.217 0.631l103.674-103.674c0.21-0.21 0.421-0.421 0.631-0.631 4.416-4.206 9.673-10.725 9.884-17.875 0-7.57-5.678-14.931-10.304-19.767l-64.349-64.349c-14.72-14.72-14.72-38.694 0-53.624 14.72-14.72 38.694-14.72 53.624 0l64.349 64.349c21.66 21.66 32.805 47.105 32.595 74.022-0.21 26.286-11.566 51.101-32.805 71.499l-103.463 103.463c-43.32 43.32-102.201 43.53-146.993 0.631-8.832-8.201-16.823-16.613-24.814-24.814-11.145-11.566-21.66-22.501-33.016-31.964-0.421-0.421-0.841-0.841-1.472-1.262-36.801-33.436-53.624-77.177-50.47-130.17 4.416-66.452 29.020-125.754 50.049-169.915v-0.21c55.727-114.819 134.376-215.338 234.264-299.034 82.644-68.555 160.032-115.029 243.517-145.942 30.703-11.356 75.495-25.656 125.123-25.656 6.519 0 13.248 0.21 19.978 0.841h0.21c36.801 3.154 68.765 18.085 95.052 44.371l64.349 64.349c0.21 0.21 0.421 0.421 0.631 0.631 41.427 43.11 41.217 102.412 0 144.26zM818.617 448.244c-13.038 76.546-49.208 146.363-104.515 201.879-54.886 55.096-124.703 91.266-201.459 104.304-20.609 3.575-40.166-10.304-43.741-30.913s10.304-40.166 30.913-43.741c60.984-10.304 116.712-39.324 160.873-83.486s73.181-99.888 83.486-160.873c3.154-18.506 19.136-31.544 37.222-31.544 2.103 0 4.206 0.21 6.309 0.631 20.609 3.575 34.488 23.132 30.913 43.741zM1023.441 457.497c-21.239 125.334-80.541 239.522-171.177 330.157s-204.824 149.938-330.157 171.177c-20.609 3.575-40.166-10.304-43.741-30.913s10.304-40.166 30.913-43.741c109.772-18.716 209.871-70.448 289.361-149.938s131.432-179.589 149.938-289.361c3.154-18.506 19.136-31.544 37.222-31.544 2.103 0 4.206 0.21 6.309 0.631 21.029 3.365 34.908 22.922 31.333 43.53z" />
<glyph unicode="&#xe90f;" glyph-name="signs" d="M634.108 187.155l-100.011-100.014v300.743c41.571 6.46 77.242 30.918 98.847 65.112 25.339-40.105 70.036-66.816 120.881-66.816 78.805 0 142.915 64.11 142.915 142.915 0 12.172-9.862 22.034-22.034 22.034s-22.034-9.862-22.034-22.034c0-54.506-44.344-98.847-98.847-98.847s-98.847 44.344-98.847 98.847c0 12.172-9.862 22.034-22.034 22.034s-22.034-9.862-22.034-22.034c0-54.506-44.344-98.847-98.847-98.847-54.506 0-98.847 44.344-98.847 98.847 0 12.172-9.862 22.034-22.034 22.034s-22.034-9.862-22.034-22.034c0-54.506-44.344-98.847-98.847-98.847s-98.847 44.344-98.847 98.85c0 12.172-9.862 22.034-22.034 22.034s-22.034-9.862-22.034-22.034c0-78.805 64.11-142.915 142.915-142.915 50.846 0 95.542 26.711 120.881 66.816 21.605-34.197 57.277-58.651 98.847-65.112v-300.746l-100.011 100.014c-8.608 8.602-22.557 8.602-31.162 0-8.605-8.608-8.605-22.557 0-31.162l137.627-137.627c0.079-0.079 0.165-0.144 0.244-0.22 0.441-0.429 0.893-0.846 1.369-1.237 0.259-0.212 0.529-0.394 0.793-0.593 0.311-0.235 0.617-0.476 0.943-0.693 0.306-0.206 0.623-0.382 0.937-0.57 0.306-0.182 0.602-0.373 0.917-0.541 0.317-0.17 0.643-0.311 0.964-0.464 0.329-0.156 0.652-0.32 0.99-0.458 0.314-0.129 0.635-0.235 0.955-0.35 0.358-0.129 0.714-0.267 1.081-0.379 0.317-0.097 0.64-0.165 0.958-0.247 0.376-0.094 0.749-0.2 1.131-0.276 0.376-0.073 0.752-0.118 1.131-0.173 0.332-0.047 0.661-0.112 0.996-0.144 0.723-0.071 1.448-0.109 2.174-0.109s1.451 0.038 2.174 0.109c0.338 0.032 0.664 0.097 0.996 0.144 0.379 0.056 0.755 0.1 1.131 0.173 0.382 0.076 0.755 0.182 1.131 0.276 0.32 0.082 0.643 0.15 0.958 0.247 0.367 0.112 0.726 0.25 1.084 0.379 0.317 0.115 0.638 0.217 0.952 0.35 0.338 0.141 0.664 0.306 0.993 0.461 0.32 0.153 0.646 0.294 0.964 0.464 0.314 0.167 0.611 0.358 0.917 0.541 0.314 0.188 0.632 0.364 0.937 0.57 0.326 0.217 0.629 0.458 0.943 0.693 0.264 0.197 0.535 0.382 0.793 0.593 0.476 0.391 0.928 0.808 1.369 1.237 0.079 0.076 0.165 0.141 0.244 0.22l137.627 137.627c8.605 8.608 8.605 22.557 0 31.162-8.614 8.596-22.563 8.596-31.171-0.003zM280.016 193.606h-235.948v668.448c0 12.172-9.862 22.034-22.034 22.034s-22.034-9.862-22.034-22.034v-690.482c0-12.172 9.862-22.034 22.034-22.034h257.982c12.172 0 22.034 9.862 22.034 22.034s-9.865 22.034-22.034 22.034zM1001.966 884.089c-12.172 0-22.034-9.862-22.034-22.034v-668.448h-235.948c-12.172 0-22.034-9.862-22.034-22.034s9.862-22.034 22.034-22.034h257.982c12.172 0 22.034 9.862 22.034 22.034v690.482c0 12.172-9.865 22.034-22.034 22.034z" />
<glyph unicode="&#xe910;" glyph-name="nature-2" d="M717.546 960c-168.762-278.986-302.298-141.782-497.588-342.43-172.336-177.066-112.582-390.306 32.524-463.744 143.23 73.188 289.768 236.822 398.452 473.724 0 0 97.664-299.144-201.492-587.374 145.268-170.148 391.828-51.772 460.726 218.918 74.898 294.274-120.386 593.896-192.622 700.906zM97.012-6.242c0.116-2.906 3.422-57.758 75.366-57.758 52.344 0 317.832 144.678 454.266 520.204-206.438-365.214-506.12-455.838-529.632-462.446z" />
<glyph unicode="&#xe911;" glyph-name="fence" d="M1005.038 454.32c10.472 0 18.962 8.488 18.962 18.964v176.988c0 10.476-8.49 18.962-18.962 18.962h-56.888v56.888c0 4.592-1.666 9.028-4.69 12.486l-88.494 101.136c-3.602 4.116-8.804 6.478-14.272 6.478s-10.67-2.362-14.272-6.478l-88.494-101.136c-3.024-3.456-4.69-7.894-4.69-12.486v-56.888h-113.778v56.888c0 4.592-1.666 9.028-4.692 12.486l-88.494 101.136c-3.6 4.116-8.802 6.478-14.27 6.478s-10.67-2.362-14.272-6.478l-88.494-101.136c-3.024-3.456-4.69-7.894-4.69-12.486v-56.888h-113.778v56.888c0 4.592-1.666 9.028-4.692 12.486l-88.5 101.136c-3.6 4.116-8.802 6.478-14.27 6.478s-10.67-2.362-14.272-6.478l-88.494-101.136c-3.024-3.456-4.69-7.894-4.69-12.486v-56.888h-56.888c-10.472 0-18.964-8.488-18.964-18.962v-176.988c0-10.476 8.49-18.964 18.964-18.964h56.888v-63.21h-56.888c-10.472 0-18.964-8.488-18.964-18.964v-176.988c0-10.476 8.49-18.962 18.964-18.962h56.888v-88.494h-31.606c-10.472 0-18.964-8.488-18.964-18.962 0-10.476 8.49-18.964 18.964-18.964h935.506c10.472 0 18.962 8.488 18.962 18.964s-8.49 18.962-18.962 18.962h-31.604v88.494h56.888c10.472 0 18.962 8.488 18.962 18.962v176.988c0 10.476-8.49 18.964-18.962 18.964h-56.888v63.21h56.89zM948.148 631.308h37.926v-139.062h-37.926v139.062zM75.852 214.124h-37.926v139.062h37.926v-139.062zM75.852 492.246h-37.926v139.062h37.926v-139.062zM252.84 87.704h-139.062v631.294l69.53 79.462 69.53-79.462v-631.294zM404.544 87.704h-113.778v88.494h113.778v-88.494zM404.544 214.124h-113.778v139.062h113.778v-139.062zM404.544 391.112h-113.778v63.208h113.778v-63.208zM404.544 492.246h-113.778v139.062h113.778v-139.062zM581.53 87.704h-139.062v631.294l69.532 79.466 69.53-79.464v-631.296zM733.234 87.704h-113.778v88.494h113.778v-88.494zM733.234 214.124h-113.778v139.062h113.778v-139.062zM733.234 391.112h-113.778v63.208h113.778v-63.208zM733.234 492.246h-113.778v139.062h113.778v-139.062zM910.222 87.704h-139.062v631.294l69.53 79.464 69.53-79.464v-631.294zM986.074 353.186v-139.062h-37.926v139.062h37.926zM151.702 571.558c-0.002-17.424 14.174-31.602 31.6-31.608 0.002 0 0.008 0 0.012 0 17.428 0.006 31.602 14.186 31.6 31.604 0 8.442-3.284 16.382-9.256 22.35-5.97 5.97-13.906 9.256-22.348 9.256-17.424 0.002-31.602-14.172-31.608-31.602zM183.304 299.752c-17.42 0-31.594-14.174-31.602-31.602-0.002-17.424 14.174-31.602 31.602-31.608 0.002 0 0.008 0 0.012 0 17.426 0.006 31.6 14.186 31.598 31.604 0 8.44-3.284 16.378-9.254 22.348s-13.906 9.258-22.356 9.258zM480.396 571.558c-0.002-17.424 14.172-31.602 31.6-31.608 0.002 0 0.008 0 0.012 0 17.428 0.006 31.602 14.186 31.6 31.604 0.002 8.442-3.284 16.382-9.256 22.35-5.97 5.97-13.906 9.256-22.348 9.256-17.424 0.002-31.604-14.172-31.608-31.602zM511.998 299.752c-17.42 0-31.598-14.174-31.602-31.602-0.002-17.424 14.172-31.602 31.6-31.608 0.006 0 0.010 0 0.012 0 17.426 0.006 31.602 14.186 31.598 31.604 0.002 8.44-3.284 16.378-9.254 22.348s-13.904 9.258-22.354 9.258zM809.086 571.558c-0.002-17.424 14.172-31.602 31.6-31.608 0.002 0 0.010 0 0.012 0 17.428 0.006 31.602 14.186 31.6 31.604 0.002 8.442-3.284 16.382-9.256 22.35-5.972 5.97-13.906 9.256-22.348 9.256-17.424 0.002-31.602-14.172-31.608-31.602zM840.688 299.752c-17.42 0-31.598-14.174-31.602-31.602-0.002-17.424 14.172-31.602 31.602-31.608 0.002 0 0.010 0 0.012 0 17.426 0.006 31.602 14.186 31.598 31.604 0.002 8.44-3.284 16.378-9.254 22.348-5.972 5.97-13.906 9.258-22.356 9.258z" />
<glyph unicode="&#xe912;" glyph-name="nature-1" d="M431.691 709.028c53.571-53.605 130.813-56.319 145.762-56.319l71.098 0.034v-324.242c0-9.438 7.594-17.066 17.032-17.066s17.066 7.628 17.066 17.066v426.041c0.154 3.652 2.936 90.076-56.267 149.278-52.069 52.121-124.533 56.167-145.49 56.167l-88.3-0.034c-9.438 0-17.066-7.646-17.066-17.066l0.018-84.546c-0.156-3.654-3.056-90.078 56.147-149.314zM409.658 857.625v68.196l71.234 0.034c12.562 0 77.464-2.218 121.359-46.165 48.451-48.451 46.369-123.065 46.335-124.465v-44.065l-175.664 175.646c-6.674 6.674-17.476 6.674-24.131 0-6.672-6.674-6.672-17.46 0-24.131l175.816-175.8-47.155-0.034c-12.578 0-77.566 2.236-121.631 46.335-48.415 48.435-46.197 123.031-46.163 124.449zM716.816 533.399c-0.016-2.322 0.426-4.608 1.332-6.776 0.12-0.274 0.358-0.46 0.478-0.716 0.82-1.706 1.758-3.346 3.158-4.744 1.298-1.298 2.834-2.134 4.386-2.918 0.392-0.204 0.682-0.546 1.092-0.734 2.1-0.87 4.334-1.348 6.588-1.348 0.052 0 0.086 0.018 0.136 0.018l88.046-0.034c14.95 0 92.192 2.696 145.712 56.233 59.254 59.22 56.337 145.66 56.199 148.596v85.33c0 9.42-7.628 17.066-17.066 17.066l-88.216 0.050c-14.95 0-92.158-2.714-145.712-56.251-59.22-59.22-56.267-145.66-56.131-148.596v-85.176zM797.078 743.042c44.031 44.013 109.001 46.249 121.579 46.249l71.15-0.052 0.016-68.93c0.018-0.75 2.252-75.348-46.215-123.799-43.997-44.015-109.001-46.233-121.581-46.233l-46.967 0.018 175.68 175.68c6.674 6.674 6.674 17.46 0 24.131s-17.476 6.674-24.131 0l-175.664-175.664-0.018 44.867c-0.030 0.736-2.572 74.992 46.151 123.733zM973.373 274.999c-17.612 4.728-36.009 2.304-50.739-6.246l-196.415-95.606c-30.531-15.274-61.352-15.274-128.901-15.274-66.028 0-166.84 16.674-167.864 16.828-9.302 1.536-18.090-4.728-19.626-14.012-1.554-9.302 4.728-18.090 14.028-19.644 4.232-0.716 104.581-17.306 173.462-17.306 70.858 0 106.425 0 143.988 18.79l197.337 96.1c7.884 4.556 17.1 5.768 25.889 3.414 8.806-2.372 16.18-8.022 20.717-15.906 9.42-16.298 3.806-37.221-12.954-46.915l-230.752-143.612c-0.478-0.324-49.715-31.333-161.292-31.333-96.748 0-246.214 82.362-248.366 83.54-1.554 0.768-38.569 18.858-110.025 18.858-9.438 0-17.066-7.646-17.066-17.066s7.628-17.066 17.066-17.066c62.070 0 94.052-14.934 94.12-14.934 0 0 0 0 0 0.018 6.452-3.584 158.664-87.482 264.271-87.482 123.219 0 177.863 35.497 179.673 36.709l229.916 143.1c32.579 18.824 43.793 60.654 24.985 93.25-9.116 15.786-23.843 27.083-41.455 31.793zM85.332 46.943c0 14.114-11.486 25.599-25.599 25.599s-25.599-11.486-25.599-25.599c0-14.114 11.486-25.599 25.599-25.599s25.599 11.486 25.599 25.599zM119.463 413.868h-102.397c-9.438 0-17.066-7.646-17.066-17.066s7.628-17.066 17.066-17.066h102.397c9.42 0 17.066-7.662 17.066-17.066v-375.456c0-9.404-7.646-17.066-17.066-17.066h-102.397c-9.438 0-17.066-7.646-17.066-17.066s7.628-17.066 17.066-17.066h102.397c28.227 0 51.199 22.971 51.199 51.199v375.452c0 28.227-22.971 51.199-51.199 51.199zM221.86 311.47h136.531c19.915 0 53.759-25.395 83.624-47.785 37.443-28.091 72.822-54.613 104.103-54.613h102.397c25.923 0 38.791-11.758 39.133-12.066 3.328-3.328 7.698-5 12.066-5 4.37 0 8.738 1.672 12.066 5 6.672 6.674 6.672 17.46 0 24.131-2.252 2.252-23.209 22.067-63.264 22.067h-102.397c-19.915 0-53.759 25.395-83.624 47.785-37.443 28.091-72.822 54.613-104.103 54.613h-136.531c-9.438 0-17.066-7.646-17.066-17.066s7.628-17.068 17.066-17.068z" />
<glyph unicode="&#xe913;" glyph-name="dog" d="M1017.171 322.22v223.316l-505.169 414.464-505.169-414.464v-223.321l144.334 118.417v-369.324h-103.74v-135.313h929.15v135.313h-99.23v365.621l139.824-114.709zM376.689 222.133c0 74.612 60.701 135.313 135.313 135.313s135.313-60.701 135.313-135.313v-150.82h-270.626v150.82z" />
<glyph unicode="&#xe914;" glyph-name="technology2" d="M987.882 152.956l-206.052 206.052c-21.758 21.752-57.154 21.752-78.912 0l-56.714-56.716c-15.718-15.718-20.018-38.542-13.020-58.216l-20.318-20.318c-7.178-7.178-32.422-6.996-70.9 10.37-44.446 20.062-94.458 56.648-140.826 103.014-46.366 46.362-82.946 96.378-103.012 140.822-17.364 38.47-17.552 63.714-10.376 70.898l20.324 20.324c6.060-2.154 12.402-3.294 18.762-3.294 14.288 0.002 28.578 5.44 39.454 16.318l56.716 56.714c21.756 21.758 21.756 57.154 0 78.912l-206.052 206.048c-21.758 21.752-57.154 21.752-78.912 0l-56.716-56.716c-15.718-15.722-20.018-38.546-13.020-58.216 0 0-21.276-21.65-22.37-23.39-51.268-61.44-60-156.042-24.302-268.69 36.104-113.932 113.976-234.664 219.272-339.96 105.3-105.296 226.032-183.172 339.964-219.276 45.65-14.468 88.328-21.636 127.046-21.636 63.166 0 115.772 19.092 153.436 56.718 0.020 0.020 11.594 11.59 11.594 11.59 6.060-2.154 12.402-3.294 18.762-3.294 14.284 0 28.576 5.44 39.454 16.318l56.716 56.714c21.758 21.754 21.758 57.156 0.002 78.91zM177.498 884.428l206.054-206.052-56.688-56.738c0 0-0.008 0.008-0.026 0.026l-206.056 206.048 56.716 56.716zM821.964 32.234c-45.278-45.28-124.912-52.888-224.236-21.41-105.564 33.45-218.274 106.446-317.362 205.54-99.092 99.094-172.088 211.8-205.538 317.364-31.468 99.306-23.874 178.93 21.388 224.214l7.716 7.716 160.854-160.854c0 0-16.508-16.514-16.524-16.53-36.628-36.702-16.344-99.242-0.984-133.266 22.768-50.438 63.4-106.31 114.414-157.326s106.886-91.646 157.322-114.414c19.884-8.978 49.498-19.632 78.014-19.632 20.296 0 40.044 5.406 55.298 20.662l16.48 16.48 160.854-160.854c-0.002 0.002-7.688-7.68-7.696-7.69zM891.738 56.76c0 0-0.008 0.006-0.026 0.026l-206.050 206.048 56.714 56.716 206.050-206.050-56.688-56.74zM777.074 713.068c-58.192 58.192-135.548 90.236-217.83 90.236-0.006 0-0.020 0-0.026 0-15.406 0-27.896-12.494-27.896-27.902 0-15.406 12.494-27.896 27.902-27.896 0.008 0 0.012 0 0.020 0 67.374 0 130.724-26.242 178.376-73.894 47.652-47.654 73.894-111.008 73.89-178.392 0-15.406 12.49-27.898 27.9-27.898 15.406 0 27.9 12.494 27.9 27.898 0 82.288-32.044 159.654-90.236 217.848zM887.872 823.866c-87.79 87.79-204.512 136.136-328.658 136.134-15.408 0-27.898-12.494-27.898-27.9 0-15.408 12.494-27.9 27.898-27.9 109.244 0.002 211.952-42.54 289.202-119.792 77.246-77.246 119.79-179.952 119.788-289.196 0-15.406 12.49-27.9 27.898-27.9 15.406 0 27.9 12.494 27.9 27.9 0 124.15-48.342 240.868-136.13 328.654zM666.272 602.268c-29.006 29.012-66.014 44.346-107.032 44.346-0.002 0-0.012 0-0.014 0-15.406 0-27.896-12.494-27.896-27.902 0-15.406 12.494-27.896 27.902-27.896 25.896 0.002 49.266-9.68 67.588-28 18.316-18.312 27.996-41.684 27.994-67.582 0-15.408 12.49-27.902 27.896-27.902 0.002 0 0.002 0 0.002 0 15.406 0 27.9 12.49 27.9 27.896 0.004 41.020-15.326 78.036-44.34 107.040z" />
<glyph unicode="&#xe915;" glyph-name="nature" d="M512-64c2.122 0 4.232 0.056 6.35 0.080-118.17 63.050-242.256 114.302-371.62 153.532 92.97-94.738 222.364-153.612 365.27-153.612zM9.934 347.472c3.606-18.034 8.152-35.73 13.602-53.032 162.066-33.984 319.612-86.362 468.308-155.738 89.414-41.718 175.984-89.764 258.85-143.542 16.498 8.732 32.482 18.312 47.854 28.73-224.7 152.924-474.716 258.742-745.072 315.034-14.462 3.014-28.986 5.838-43.542 8.548zM1018.196 525.114l-193.088-0.006c-9.146-21.68-23.69-48.502-45.386-69.574v-57.214c35.584 6.356 71.286 11.856 107.070 16.38 45.414 5.74 91.038 9.956 136.762 12.75 0.272 6.822 0.448 13.666 0.448 20.554-0.002 26.206-1.992 51.954-5.806 77.11zM672.648 525.108h-59.050c-1.502-20.542-6.508-42.4-14.568-62.822-6.542-16.57-17.538-38.378-34.6-55.954v-58.014h0.004c50.836 14.586 102.134 27.29 153.752 38.076-0.096 0.986-0.152 1.99-0.152 3v66.138c-21.692 21.076-36.238 47.9-45.386 69.576zM409.488 297.502c30.858 11.428 61.962 22.128 93.258 32.124v76.71c-17.060 17.574-28.058 39.38-34.6 55.954-8.060 20.418-13.066 42.28-14.568 62.822h-447.774c-3.814-25.16-5.804-50.908-5.804-77.112 0-12.196 0.456-24.282 1.302-36.266 21.664-3.828 43.27-7.942 64.744-12.414 117.392-24.444 232.406-58.6 343.442-101.818zM467.576 618.29c8.18 24.126 23.002 56.798 47.16 75.458 11.11 8.58 26.602 8.58 37.712 0 24.156-18.66 38.98-51.332 47.16-75.456 3.5-10.326 6.428-20.962 8.722-31.498h46.12c-2.61 14.666-4.046 29.172-4.046 42.94 0 31.478 6.99 70.144 19.172 106.080 10.644 31.384 29.77 73.766 60.446 97.462 11.11 8.58 26.602 8.58 37.712 0 30.674-23.698 49.8-66.078 60.444-97.458 12.186-35.926 19.176-74.592 19.176-106.080 0-13.772-1.434-28.274-4.046-42.94h161.57c-60.658 215.092-258.644 373.202-492.878 373.202s-432.22-158.11-492.87-373.204h439.724c2.294 10.532 5.222 21.168 8.722 31.494zM849.726 63.526c30.486 26.812 57.766 57.174 81.192 90.446-59.592-6.468-118.966-15.546-178.006-27.214 32.826-20.2 65.122-41.278 96.814-63.232zM80.822 172.164c125.908-32.87 248.462-76.908 365.516-131.522 60.124-28.052 118.942-58.998 176.232-92.582 20.594 4.552 40.726 10.344 60.312 17.3-193.94 120.82-405.548 207.9-631.812 259.85 8.886-18.312 18.824-36.026 29.752-53.046zM537.35 242.934c3.060-1.428 6.098-2.906 9.154-4.348 152.172 44.266 307.904 72.486 461.954 84.076 3.554 14.070 6.51 28.376 8.87 42.878-176.896-11.576-351.59-46.104-522.54-103.378 14.258-6.274 28.46-12.652 42.562-19.228zM674.116 172.964c97.864 22.596 196.734 38.224 296.118 46.826 6.406 12.816 12.31 25.92 17.646 39.312-119.54-10.426-239.986-31.108-358.754-61.782 15.084-7.944 30.092-16.048 44.99-24.356z" />
<glyph unicode="&#xe916;" glyph-name="letter" d="M0 665.011v-589.203h1024v589.203l-512-364.986zM512 366.769c-6.246 0-12.417 2.033-17.739 5.802l-473.528 341.075c-7.909 5.691-12.602 14.857-12.602 24.65v51.629c0 16.815 13.6 30.268 30.342 30.268h947.019c16.741 0 30.268-13.452 30.268-30.268v-49.633c0-9.683-4.657-18.811-12.491-24.539l-473.528-343.144c-5.285-3.844-11.531-5.839-17.739-5.839zM68.777 753.818l443.149-319.27 443.26 321.118v3.954h-886.41v-5.802z" />
<glyph unicode="&#xe917;" glyph-name="telephone" d="M889.405-6.134c22.898 23.111 38.773 50.559 47.728 79.688 5.663 13.378 3.026 29.499-8.017 40.42l-197.337 195.264c-10.352 10.264-25.076 12.901-37.905 8.494l-0.124 0.124c-29.888-9.15-58.099-25.642-81.741-49.516-15.873-16.034-28.457-34.174-37.642-53.463-26.42 21.43-52.788 44.915-78.715 70.274-25.659 25.696-109.225 109.33-130.938 135.539 19.219 9.396 37.253 22.104 53.126 38.155 23.625 23.873 39.8 52.242 48.577 82.307l-0.037 0.054c4.282 12.847 1.31 27.713-8.972 37.888l-197.317 195.231c-11.061 10.937-27.199 13.432-40.542 7.593-28.988-9.22-56.293-25.431-79.211-48.524-51.657-52.223-67.726-126.302-48.542-192.168 20.829-94.943 155.801-276.069 269.025-389.096 0.566-0.55 1.062-1.027 1.629-1.61 0.496-0.479 1.060-1.044 1.558-1.558 67.017-65.709 137.521-118.178 203.565-154.439l67.282-31.872c21.999-8.689 43.144-15.292 62.931-19.395 66.060-18.495 139.98-1.63 191.619 50.609zM322.436 852.935c-14.529 0-26.438-11.822-26.564-26.422-0.035-7.079 2.691-13.767 7.699-18.812 4.989-5.026 11.663-7.823 18.704-7.839 40.668-0.248 78.856-16.387 107.542-45.411 28.668-29.057 44.33-67.424 44.066-108.057-0.052-7.114 2.656-13.821 7.645-18.864 4.991-5.061 11.663-7.858 18.653-7.874h0.283c14.511 0 26.403 11.822 26.509 26.368 0.675 113.348-91.011 206.185-204.536 206.91zM605.497 624.435h0.176c14.565 0 26.457 11.839 26.546 26.368 0.531 81.954-30.969 159.27-88.714 217.74-57.727 58.471-134.654 90.944-216.767 91.457-14.513 0-26.422-11.822-26.546-26.333-0.124-14.6 11.679-26.599 26.386-26.758 140.156-0.885 253.452-115.613 252.568-255.771-0.070-14.563 11.716-26.544 26.351-26.703z" />
<glyph unicode="&#xe918;" glyph-name="stamp" d="M91.897 277.333v-262.564h78.769v-78.769h682.667v78.769h78.769v262.564zM378.171 528.922l28.803-172.82h210.051l28.803 172.82c61.892 42.612 102.479 113.945 102.479 194.77 0 130.507-105.798 236.308-236.308 236.308s-236.308-105.8-236.308-236.308c0-80.825 40.585-152.159 102.479-194.77z" />
<glyph unicode="&#xe919;" glyph-name="winner-trophy-for-the-best" d="M505.047 803.937c-2.366-3.548-5.402-6.457-9.111-8.631s-7.832-3.676-12.339-4.603c-4.507-0.927-9.143-1.279-13.874-1.151v-23.911h31.967v-81.932h34.492v133.43h-27.012c-0.384-5.211-1.758-9.622-4.124-13.202zM948.782 862.98c-15.504 49.869-60.354 100.568-105.012 96.828-45.969-4.348-57.956-35.068-64.414-51.531-3.708-9.558-4.795-11.316-6.202-11.7-6.521-2.014-17.965 3.325-28.642 10.773 0.096 5.402 0.128 9.622 0.128 12.723h9.27v34.365h-483.821v-34.365h9.27c0-3.133 0.032-7.32 0.128-12.723-10.677-7.416-22.153-12.787-28.642-10.773-1.407 0.384-2.493 2.142-6.202 11.7-6.457 16.463-18.477 47.183-64.414 51.531-44.69 3.74-89.476-46.992-105.012-96.828-19.148-61.441 2.174-116.424 56.997-147.144l181.956-101.847c-20.299-1.087-36.474-17.742-36.474-38.265 0-21.29 17.262-38.52 38.52-38.52 20.779 0 37.593 16.495 38.36 37.114l11.284 8.983c26.181-29.314 59.043-48.558 73.205-57.605l-28.099 0.607v-58.436h44.882c-2.27-36.378-15.856-177.513-91.298-217.376v-32.127h-33.693v-38.297l-49.261-0.32v-243.749h460.805v243.749l-49.261 0.32v38.297h-33.693v32.127c-75.442 39.863-89.028 180.997-91.298 217.376h44.882v58.436l-28.099-0.607c14.129 9.047 47.024 28.291 73.205 57.605l11.284-8.983c0.735-20.651 17.582-37.114 38.36-37.114 21.29 0 38.52 17.23 38.52 38.52 0 20.555-16.175 37.178-36.506 38.265l181.956 101.847c54.823 30.72 76.145 85.704 57.029 147.144zM157.821 761.645c-41.685 23.304-40.726 59.491-32.542 85.768 11.988 38.552 41.333 61.696 50.060 60.194 13.746-1.279 14.897-4.22 20.459-18.413 5.115-13.043 13.65-34.94 39.991-42.836 15.888-4.731 31.679-2.046 46.033 3.42 3.229-52.586 10.805-121.794 28.195-173.325l-152.195 85.192zM511.984 634c-62.048 0.416-112.268 50.796-112.268 112.94s50.22 112.556 112.268 112.94c62.048-0.416 112.268-50.796 112.268-112.94s-50.22-112.556-112.268-112.94zM866.211 761.645l-152.259-85.192c17.422 51.531 24.966 120.739 28.227 173.325 14.321-5.498 30.113-8.184 46.001-3.42 26.373 7.896 34.908 29.793 39.991 42.836 5.53 14.193 6.681 17.134 20.491 18.413 8.663 1.502 38.009-21.642 50.028-60.194 8.184-26.277 9.175-62.464-32.479-85.768z" />
<glyph unicode="&#xe91a;" glyph-name="right-arrow" d="M689.55 797.181c-13.95 14.438-37.168 14.438-51.606 0-13.95-13.95-13.95-37.168 0-51.086l261.674-261.674h-863.49c-20.129-0.033-36.128-16.032-36.128-36.16s15.999-36.648 36.128-36.648h863.49l-261.674-261.187c-13.95-14.438-13.95-37.689 0-51.606 14.438-14.438 37.689-14.438 51.606 0l323.622 323.622c14.438 13.95 14.438 37.168 0 51.086l-323.622 323.654z" />
<glyph unicode="&#xe91b;" glyph-name="arrows" d="M485.276-1.207c26.955-81.021 78.086-83.879 114.155-6.642l410.048 878.564c36.069 77.391 2.626 110.757-74.688 74.688l-878.641-409.971c-77.314-36.069-74.379-87.2 6.565-114.233l316.901-105.582 105.659-316.824z" />
<glyph unicode="&#xe91c;" glyph-name="back" d="M513.285 379.71h0.219c7.722 0 15.353 2.24 21.527 6.32l1.675 1.076c0.365 0.238 0.746 0.453 1.129 0.709l19.506 16.138 465.584 384.207c-0.964 1.33-2.605 2.24-4.354 2.24h-1013.163c-1.257 0-2.423-0.455-3.351-1.22l487.111-401.492c6.139-5.083 14.898-7.98 24.116-7.98zM0 735.96v-569.508l348.946 281.886-348.946 287.622zM675.418 446.426l348.582-280.119v567.759l-348.582-287.64zM564.59 354.995c-13.896-11.401-32.072-17.686-51.16-17.686-19.16 0-37.319 6.248-51.178 17.595l-79.921 65.914-382.332-308.808v-0.982c0-2.933 2.513-5.428 5.481-5.428h1013.109c2.913 0 5.408 2.495 5.408 5.446v0.91l-382.002 306.929-77.406-63.891z" />
<glyph unicode="&#xe91d;" glyph-name="phone" d="M568.889 618.667h-113.778v-113.778h113.778v113.778zM796.444 618.667h-113.778v-113.778h113.778v113.778zM967.111 248.889c-68.267 0-136.533 11.378-204.8 34.133-17.067 5.689-39.824 0-56.889-11.378l-125.156-125.156c-159.287 79.644-290.133 216.178-375.467 375.467l125.156 125.156c17.067 17.067 22.756 39.822 11.378 56.889-17.067 62.578-28.444 130.844-28.444 199.111 0 34.133-22.756 56.889-56.889 56.889h-199.111c-34.133 0-56.889-22.756-56.889-56.889 0-534.756 432.356-967.111 967.111-967.111 34.133 0 56.889 22.756 56.889 56.889v199.111c0 34.133-22.756 56.889-56.889 56.889zM910.222 618.667v-113.778h113.778v113.778h-113.778z" />
<glyph unicode="&#xe91e;" glyph-name="nature-12" d="M371.56 470.765c20.71 0 41.053-3.625 60.495-10.777l153.325-56.329c53.081-19.508 80.409-78.588 60.898-131.803-14.802-40.064-53.444-66.989-96.203-66.989-15.267 0-22.223 2.646-42.995 7.349 37.807-25.131 40.054-28.638 47.903-25.402l314.634 131.829c-7.447 25.438-30.698 44.144-58.56 44.144h-20.608c0.2 2.207 0.799 4.326 0.799 6.599 0 47.884-45.293 86.736-102.782 90.692-4.755 37.418-36.71 68.024-78.1 66.491 53.706 102.612 144.152 78.549 193.847 215.886 0.491 1.356 1.922 2.129 3.33 1.798 1.405-0.337 2.335-1.67 2.161-3.101-12.641-104.747-78.238-160.228-79.351-161.27 71.086-10.836 137.528 30.721 159.072 112.793 15.202 57.711-17.995 154.874-43.152 215.932-2.908 7.054-9.792 11.655-17.425 11.645-7.63-0.013-14.501-4.637-17.386-11.704-14.36-35.184-48.339-79.8-127.844-111.080-68.711-32.502-74.829-116.896-36.776-170.030-14.838-9.651-55.825-46.443-71.187-88.501-17.369 24.531-45.962 41.269-79.030 43.843 0 151.661-109.368 219.882-140.481 308.517-0.94 2.675-3.697 4.267-6.484 3.733-2.79-0.531-4.768-3.026-4.657-5.862 4.732-120.283 110.232-129.511 110.232-310.613-29.263-8.871-52.95-29.28-64.837-55.553-9.055 2.286-18.372 3.841-28.13 3.841-54.446 0-99.779-37.644-112.269-88.203 67.28 23.552 84.833 32.126 121.56 32.126zM1018.665 251.276c-10.987 26.224-36.442 41.989-63.167 41.989-8.783 0-17.736-1.719-26.355-5.325l-354.354-148.449c-19.937-8.361-42.212-5.823-59.457 5.646l-139.198 92.463c-10.456 6.929-15.198 19.855-11.688 31.9 4.247 14.566 19.082 23.316 33.871 19.96l136.155-30.848c5.181-1.654 10.427-2.44 15.604-2.44 20.841 0 40.417 12.729 48.067 33.458 9.756 26.608-3.881 56.084-30.465 65.856l-153.325 56.349c-26.758 9.854-56.421 10.237-83.811 0.635l-310-108.611c-12.29-4.31-20.543-15.935-20.543-28.982v-222.508c0-16.97 13.761-30.714 30.701-30.714h129.707l330.432-44.629c6.281-0.851 12.598-1.271 18.876-1.271 18.673 0 37.215 3.707 54.512 10.977l417.757 175.001c34.876 14.606 51.28 54.686 36.681 89.542z" />
<glyph unicode="&#xe921;" glyph-name="null" d="M0 832v-768l384 384v384zM640 832v-768l384 384v384z" />
<glyph unicode="&#xe92e;" glyph-name="arrows4" d="M777.609 462.097l-375.467 256c-5.239 3.55-11.998 3.942-17.596 0.99-5.581-2.953-9.079-8.755-9.079-15.087v-512c0-6.332 3.499-12.134 9.097-15.087 2.492-1.331 5.239-1.98 7.97-1.98 3.362 0 6.724 1.007 9.609 2.97l375.467 256c4.659 3.174 7.458 8.448 7.458 14.097s-2.799 10.923-7.458 14.097zM409.6 224.307v447.386l328.107-223.693-328.107-223.693zM512 960c-282.317 0-512-229.683-512-512s229.683-512 512-512 512 229.683 512 512-229.683 512-512 512zM512-29.867c-263.492 0-477.867 214.374-477.867 477.867s214.374 477.867 477.867 477.867 477.867-214.374 477.867-477.867-214.374-477.867-477.867-477.867z" />
</font>
</defs>
</svg>
